<svg xmlns="http://www.w3.org/2000/svg" viewBox="0 0 900 560" width="900" height="560" role="img" aria-label="Stylized map of Indian branch locations">
  <rect width="900" height="560" fill="#0E2A3A"/>
  <g stroke="#10B981" stroke-opacity="0.12" stroke-width="1">
    <line x1="0" y1="70" x2="900" y2="70"/><line x1="0" y1="140" x2="900" y2="140"/><line x1="0" y1="210" x2="900" y2="210"/><line x1="0" y1="280" x2="900" y2="280"/><line x1="0" y1="350" x2="900" y2="350"/><line x1="0" y1="420" x2="900" y2="420"/><line x1="0" y1="490" x2="900" y2="490"/>
    <line x1="75" y1="0" x2="75" y2="560"/><line x1="150" y1="0" x2="150" y2="560"/><line x1="225" y1="0" x2="225" y2="560"/><line x1="300" y1="0" x2="300" y2="560"/><line x1="375" y1="0" x2="375" y2="560"/><line x1="450" y1="0" x2="450" y2="560"/><line x1="525" y1="0" x2="525" y2="560"/><line x1="600" y1="0" x2="600" y2="560"/><line x1="675" y1="0" x2="675" y2="560"/><line x1="750" y1="0" x2="750" y2="560"/><line x1="825" y1="0" x2="825" y2="560"/>
  </g>
  <g>
    <path d="M 210 150 L 250 120 L 300 130 L 340 150 L 330 200 L 360 250 L 320 330 L 280 380 L 240 350 L 200 280 L 180 210 Z" fill="#1A3A4F" stroke="#10B981" stroke-opacity="0.6" stroke-width="2"/>
    <path d="M 470 240 L 490 200 L 530 190 L 560 230 L 540 280 L 500 290 Z" fill="#1A3A4F" stroke="#10B981" stroke-opacity="0.6" stroke-width="2"/>
    <path d="M 620 180 L 660 160 L 700 190 L 670 230 L 630 220 Z" fill="#1A3A4F" stroke="#10B981" stroke-opacity="0.6" stroke-width="2"/>
  </g>
  <g>
    <circle cx="250" cy="230" r="14" fill="#10B981"/><circle cx="250" cy="230" r="22" fill="none" stroke="#10B981" stroke-opacity="0.5" stroke-width="2"/>
    <circle cx="510" cy="270" r="12" fill="#D4A574"/><circle cx="510" cy="270" r="19" fill="none" stroke="#D4A574" stroke-opacity="0.5" stroke-width="2"/>
    <circle cx="535" cy="300" r="12" fill="#10B981"/><circle cx="535" cy="300" r="19" fill="none" stroke="#10B981" stroke-opacity="0.5" stroke-width="2"/>
    <circle cx="650" cy="200" r="12" fill="#10B981"/><circle cx="650" cy="200" r="19" fill="none" stroke="#10B981" stroke-opacity="0.5" stroke-width="2"/>
    <circle cx="585" cy="310" r="12" fill="#10B981"/><circle cx="585" cy="310" r="19" fill="none" stroke="#10B981" stroke-opacity="0.5" stroke-width="2"/>
    <circle cx="300" cy="380" r="12" fill="#D4A574"/><circle cx="300" cy="380" r="19" fill="none" stroke="#D4A574" stroke-opacity="0.5" stroke-width="2"/>
    <circle cx="385" cy="330" r="12" fill="#10B981"/><circle cx="385" cy="330" r="19" fill="none" stroke="#10B981" stroke-opacity="0.5" stroke-width="2"/>
  </g>
  <g font-family="Arial" font-size="12" font-weight="bold" fill="#A7F3D0">
    <text x="272" y="226">Coimbatore</text>
    <text x="528" y="266">Chennai</text>
    <text x="556" y="322">Bengaluru</text>
    <text x="668" y="196">Hyderabad</text>
    <text x="602" y="352">Mumbai</text>
    <text x="318" y="402">Kochi</text>
    <text x="398" y="350">Delhi</text>
  </g>
</svg>
